# xmcd
#
# Track frame offsets: 
#        150
#        21975
#        48825
#        71551
#        101251
#        120001
#        141226
#        162527
#        183002
#        205053
#        224178
#        246304
#
# Disc length: 3592 seconds
#
# Revision: 3
# Processed by: cddbd v1.5.2PL0 Copyright (c) Steve Scherf et al.
# Submitted via: ExactAudioCopy v0.99pb4
#
DISCID=a90e060c
DTITLE=Eddie Higgins - You Are Too Beautiful
DYEAR=2007
DGENRE=Jazz
TTITLE0=A Nightingale Sang In Barkeley Square
TTITLE1=All The Things You Are
TTITLE2=Lover Man
TTITLE3=Like Someone In Love
TTITLE4=Historia de Una Amor
TTITLE5=Anything Goes
TTITLE6=In A Sentimental Mood
TTITLE7=In The Still Of The Night
TTITLE8=Georgia On My Mind
TTITLE9=Blue Bossa
TTITLE10=You Are Too Beautiful
TTITLE11=I'll Be Seeing You
EXTD=
EXTT0=4:46
EXTT1=5:53
EXTT2=4:58
EXTT3=6:31
EXTT4=4:05
EXTT5=4:38
EXTT6=4:39
EXTT7=4:28
EXTT8=4:49
EXTT9=4:10
EXTT10=4:50
EXTT11=5:08
PLAYORDER=
